<svg xmlns="http://www.w3.org/2000/svg" style="display:none">
<symbol id="streamline-sharp-color--shopping-bag-hand-bag-price-tag-flat" viewBox="0 0 24 24"><g fill="none"><path fill="#8fbffa" fill-rule="evenodd" d="M7.69 7.256a3.893 3.893 0 1 1 7.785 0v1.216H7.69zM5.743 8.472V7.256a5.839 5.839 0 1 1 11.679 0v1.216h2.572l2.17 14.112H1L3.17 8.472z" clip-rule="evenodd"/><path fill="#2859c5" d="m14.731 9.528l.994-3.57l3.676.468l3.6 5.418l-4.67 3.102z"/></g></symbol>
<symbol id="mdi--percent" viewBox="0 0 24 24"><path fill="currentColor" d="m18.5 3.5l-15 15l2 2l15-15M7 4a3 3 0 0 0-3 3a3 3 0 0 0 3 3a3 3 0 0 0 3-3a3 3 0 0 0-3-3m10 10a3 3 0 0 0-3 3a3 3 0 0 0 3 3a3 3 0 0 0 3-3a3 3 0 0 0-3-3"/></symbol>
<symbol id="mdi--category-outline" viewBox="0 0 24 24"><path fill="currentColor" d="M11 13.5v8H3v-8zm-2 2H5v4h4zM12 2l5.5 9h-11zm0 3.86L10.08 9h3.84zM17.5 13c2.5 0 4.5 2 4.5 4.5S20 22 17.5 22S13 20 13 17.5s2-4.5 4.5-4.5m0 2a2.5 2.5 0 0 0-2.5 2.5a2.5 2.5 0 0 0 2.5 2.5a2.5 2.5 0 0 0 2.5-2.5a2.5 2.5 0 0 0-2.5-2.5"/></symbol>
<symbol id="mdi--delivery-dining-outline" viewBox="0 0 24 24"><path fill="currentColor" d="M19 7a2 2 0 0 0-2-2h-3v2h3v2.65L13.5 14H10V9H6c-2.21 0-4 1.79-4 4v3h2c0 1.66 1.34 3 3 3s3-1.34 3-3h4.5l4.5-5.65zM7 17c-.55 0-1-.45-1-1h2c0 .55-.45 1-1 1m1-3H4v-1c0-1.1.9-2 2-2h2zm11-1c-1.66 0-3 1.34-3 3s1.34 3 3 3s3-1.34 3-3s-1.34-3-3-3m0 4c-.55 0-1-.45-1-1s.45-1 1-1s1 .45 1 1s-.45 1-1 1m-9-9H5V6h5z"/></symbol>
<symbol id="mdi--clock-outline" viewBox="0 0 24 24"><path fill="currentColor" d="M12 20a8 8 0 0 0 8-8a8 8 0 0 0-8-8a8 8 0 0 0-8 8a8 8 0 0 0 8 8m0-18a10 10 0 0 1 10 10a10 10 0 0 1-10 10C6.47 22 2 17.5 2 12A10 10 0 0 1 12 2m.5 5v5.25l4.5 2.67l-.75 1.23L11 13V7z"/></symbol>
<symbol id="mdi--plus-one" viewBox="0 0 24 24"><path fill="currentColor" d="M13 7v2h2v8h2V7zm-2 6H9v2H7v-2H5v-2h2V9h2v2h2z"/></symbol>
<symbol id="mdi-light--gift" viewBox="0 0 24 24"><path fill="currentColor" d="M4 13v8h7v-8zm8 0v8h7v-8zm8 0v9H3v-9H2V7h3.04L5 6.5A3.5 3.5 0 0 1 8.5 3c1.27 0 2.39.68 3 1.7c.61-1.02 1.73-1.7 3-1.7A3.5 3.5 0 0 1 18 6.5l-.04.5H21v6zM3 8v4h8V8zm17 4V8h-8v4zm-3.05-5l.05-.5A2.5 2.5 0 0 0 14.5 4A2.5 2.5 0 0 0 12 6.5V7zM11 7v-.5A2.5 2.5 0 0 0 8.5 4A2.5 2.5 0 0 0 6 6.5l.05.5z"/></symbol>

<symbol id="mdi--currency-hryvnia" viewBox="0 0 24 24"><path fill="currentColor" d="M14.59 11H18V9h-1.68c.42-.66.68-1.32.68-2c0-2.63-2.5-4-5-4c-2.35 0-4.47 2.06-4.71 2.29l1.42 1.42C9.19 6.23 10.71 5 12 5c1.04 0 3 .42 3 2c0 .5-.5 1.24-1.24 2H6v2h5.63c-.42.36-1.88 1.67-2.22 2H6v2h1.68c-.42.66-.68 1.32-.68 2c0 2.63 2.5 4 5 4c2.35 0 4.47-2.06 4.71-2.29l-1.42-1.42c-.47.48-2 1.71-3.29 1.71c-1.04 0-3-.42-3-2c0-.5.5-1.24 1.24-2H18v-2h-5.62z"/></symbol>
<symbol id="mdi--currency-ruble" viewBox="0 0 24 24"><path fill="currentColor" d="M13.5 3H7v9H5v2h2v2H5v2h2v3h2v-3h4v-2H9v-2h4.5c3.04 0 5.5-2.46 5.5-5.5S16.54 3 13.5 3m0 9H9V5h4.5C15.43 5 17 6.57 17 8.5S15.43 12 13.5 12"/></symbol>
<symbol id="mdi--currency-dollar" viewBox="0 0 24 24"><path fill="currentColor" d="M7 15h2c0 1.08 1.37 2 3 2s3-.92 3-2c0-1.1-1.04-1.5-3.24-2.03C9.64 12.44 7 11.78 7 9c0-1.79 1.47-3.31 3.5-3.82V3h3v2.18C15.53 5.69 17 7.21 17 9h-2c0-1.08-1.37-2-3-2s-3 .92-3 2c0 1.1 1.04 1.5 3.24 2.03C14.36 11.56 17 12.22 17 15c0 1.79-1.47 3.31-3.5 3.82V21h-3v-2.18C8.47 18.31 7 16.79 7 15"/></symbol>

<symbol id="tabler--category" viewBox="0 0 24 24"><path fill="none" stroke="currentColor" stroke-linecap="round" stroke-linejoin="round" stroke-width="2" d="M4 4h6v6H4zm10 0h6v6h-6zM4 14h6v6H4zm10 3a3 3 0 1 0 6 0a3 3 0 1 0-6 0"/></symbol>
<symbol id="tabler--star-filled" viewBox="0 0 24 24"><path fill="currentColor" d="m8.243 7.34l-6.38.925l-.113.023a1 1 0 0 0-.44 1.684l4.622 4.499l-1.09 6.355l-.013.11a1 1 0 0 0 1.464.944l5.706-3l5.693 3l.1.046a1 1 0 0 0 1.352-1.1l-1.091-6.355l4.624-4.5l.078-.085a1 1 0 0 0-.633-1.62l-6.38-.926l-2.852-5.78a1 1 0 0 0-1.794 0z"/></symbol>
<symbol id="iconoir--bubble-star" viewBox="0 0 24 24"><g fill="none" stroke="currentColor" stroke-linecap="round" stroke-linejoin="round" stroke-width="1.5"><path d="m17.306 4.113l.909-1.927a.312.312 0 0 1 .57 0l.91 1.927l2.032.311c.261.04.365.376.177.568l-1.471 1.5l.347 2.118c.044.272-.229.48-.462.351l-1.818-1l-1.818 1c-.233.128-.506-.079-.462-.351l.347-2.118l-1.47-1.5c-.19-.192-.085-.528.176-.568z"/><path d="M13 2.05Q12.507 2 12 2C6.477 2 2 6.477 2 12c0 1.821.487 3.53 1.338 5L2.5 21.5l4.5-.838A9.96 9.96 0 0 0 12 22c5.523 0 10-4.477 10-10q0-.507-.05-1"/></g></symbol>
<symbol id="noto--star" viewBox="0 0 128 128"><path fill="#fdd835" d="m68.05 7.23l13.46 30.7a7.05 7.05 0 0 0 5.82 4.19l32.79 2.94c3.71.54 5.19 5.09 2.5 7.71l-24.7 20.75c-2 1.68-2.91 4.32-2.36 6.87l7.18 33.61c.63 3.69-3.24 6.51-6.56 4.76L67.56 102a7.03 7.03 0 0 0-7.12 0l-28.62 16.75c-3.31 1.74-7.19-1.07-6.56-4.76l7.18-33.61c.54-2.55-.36-5.19-2.36-6.87L5.37 52.78c-2.68-2.61-1.2-7.17 2.5-7.71l32.79-2.94a7.05 7.05 0 0 0 5.82-4.19l13.46-30.7c1.67-3.36 6.45-3.36 8.11-.01"/><path fill="#ffff8d" d="m67.07 39.77l-2.28-22.62c-.09-1.26-.35-3.42 1.67-3.42c1.6 0 2.47 3.33 2.47 3.33l6.84 18.16c2.58 6.91 1.52 9.28-.97 10.68c-2.86 1.6-7.08.35-7.73-6.13"/><path fill="#f4b400" d="M95.28 71.51L114.9 56.2c.97-.81 2.72-2.1 1.32-3.57c-1.11-1.16-4.11.51-4.11.51l-17.17 6.71c-5.12 1.77-8.52 4.39-8.82 7.69c-.39 4.4 3.56 7.79 9.16 3.97"/></symbol>
<symbol id="tabler--number-100-small" viewBox="0 0 24 24"><path fill="none" stroke="currentColor" stroke-linecap="round" stroke-linejoin="round" stroke-width="2" d="M4 8h1v8m4-6v4a2 2 0 1 0 4 0v-4a2 2 0 1 0-4 0m7 0v4a2 2 0 1 0 4 0v-4a2 2 0 1 0-4 0"/></symbol>

<symbol id="ic--sharp-production-quantity-limits" viewBox="0 0 24 24"><path fill="currentColor" d="M13 10h-2V8h2zm0-4h-2V1h2zM7 18c-1.1 0-1.99.9-1.99 2S5.9 22 7 22s2-.9 2-2s-.9-2-2-2m10 0c-1.1 0-1.99.9-1.99 2s.89 2 1.99 2s2-.9 2-2s-.9-2-2-2m-8.9-5h7.45c.75 0 1.41-.41 1.75-1.03L21 4.96L19.25 4l-3.7 7H8.53L4.27 2H1v2h2l3.6 7.59l-1.35 2.44C4.52 15.37 5.48 17 7 17h12v-2H7z"/></symbol>
<symbol id="ic--outline-eco" viewBox="0 0 24 24"><path fill="currentColor" d="M6.05 8.05a7.007 7.007 0 0 0 0 9.9C7.42 19.32 9.21 20 11 20s3.58-.68 4.95-2.05C19.43 14.47 20 4 20 4S9.53 4.57 6.05 8.05m8.49 8.49c-.95.94-2.2 1.46-3.54 1.46c-.89 0-1.73-.25-2.48-.68c.92-2.88 2.62-5.41 4.88-7.32c-2.63 1.36-4.84 3.46-6.37 6c-1.48-1.96-1.35-4.75.44-6.54C9.21 7.72 14.04 6.65 17.8 6.2c-.45 3.76-1.52 8.59-3.26 10.34"/></symbol>
<symbol id="carbon--delivery" viewBox="0 0 32 32"><path fill="currentColor" d="M4 16h12v2H4zm-2-5h10v2H2z"/><path fill="currentColor" d="m29.919 16.606l-3-7A1 1 0 0 0 26 9h-3V7a1 1 0 0 0-1-1H6v2h15v12.556A4 4 0 0 0 19.142 23h-6.284a4 4 0 1 0 0 2h6.284a3.98 3.98 0 0 0 7.716 0H29a1 1 0 0 0 1-1v-7a1 1 0 0 0-.081-.394M9 26a2 2 0 1 1 2-2a2 2 0 0 1-2 2m14-15h2.34l2.144 5H23Zm0 15a2 2 0 1 1 2-2a2 2 0 0 1-2 2m5-3h-1.142A3.995 3.995 0 0 0 23 20v-2h5Z"/></symbol>
<symbol id="fluent--box-24-regular" viewBox="0 0 24 24"><path fill="currentColor" d="M10.591 2.513a3.75 3.75 0 0 1 2.818 0l7.498 3.04A1.75 1.75 0 0 1 22 7.175v9.653a1.75 1.75 0 0 1-1.093 1.621l-7.498 3.04a3.75 3.75 0 0 1-2.818 0l-7.498-3.04A1.75 1.75 0 0 1 2 16.827V7.176a1.75 1.75 0 0 1 1.093-1.622zm2.254 1.39a2.25 2.25 0 0 0-1.69 0L9.24 4.68l7.527 2.927l2.669-1.03zm1.846 4.505L7.215 5.5L4.59 6.564l7.411 2.882zM3.5 16.828a.25.25 0 0 0 .156.231l7.499 3.04q.047.02.095.036v-9.371L3.5 7.75zm9.345 3.271l7.499-3.04a.25.25 0 0 0 .156-.232V7.774l-7.75 2.992v9.37z"/></symbol>
<symbol id="hugeicons--delivery-delay-02" viewBox="0 0 24 24"><g fill="none" stroke="currentColor" stroke-linecap="round" stroke-linejoin="round" stroke-width="1.5" color="currentColor"><path d="M19.5 19.5a2.5 2.5 0 1 1-5 0a2.5 2.5 0 0 1 5 0m-10 0a2.5 2.5 0 1 1-5 0a2.5 2.5 0 0 1 5 0"/><path d="M2 12v5c0 .935 0 1.402.201 1.75a1.5 1.5 0 0 0 .549.549c.348.201.815.201 1.75.201m10 0h-5m5.5-2V9c0-1.414 0-2.121-.44-2.56C14.122 6 13.415 6 12 6h-1m4.5 2.5h1.801c.83 0 1.245 0 1.589.195c.344.194.557.55.984 1.262l1.699 2.83c.212.354.318.532.373.728c.054.197.054.403.054.816V17c0 .935 0 1.402-.201 1.75a1.5 1.5 0 0 1-.549.549c-.348.201-.815.201-1.75.201M7.85 7.85l-1.35-.9V4.7M2 6.5a4.5 4.5 0 1 0 9 0a4.5 4.5 0 0 0-9 0"/></g></symbol>
<symbol id="material-symbols-light--reviews-outline" viewBox="0 0 24 24"><path fill="currentColor" d="M9.517 13.673L12 12.167l2.483 1.506l-.66-2.825l2.196-1.884l-2.886-.256L12 6.058l-1.133 2.65l-2.886.256l2.196 1.884zM3 20.077V4.616q0-.691.463-1.153T4.615 3h14.77q.69 0 1.152.463T21 4.616v10.769q0 .69-.463 1.153T19.385 17H6.077zM5.65 16h13.735q.23 0 .423-.192t.192-.423V4.615q0-.23-.192-.423T19.385 4H4.615q-.23 0-.423.192T4 4.615v13.03zM4 16V4z"/></symbol>
<symbol id="simple-icons--expertsexchange" viewBox="0 0 24 24"><path fill="currentColor" d="M7.28.9H0L8.36 12L0 23.1h7.28L15.64 12zM24 .9h-7.28l-2.3 3.06l3.64 4.82zm-9.58 19.15l2.3 3.05H24l-5.94-7.88z"/></symbol>
<symbol id="streamline-flex--warranty-badge-highlight" viewBox="0 0 14 14"><g fill="none" stroke="currentColor" stroke-linejoin="round" stroke-width="1"><path d="M1.082 7.626a.976.976 0 0 1 0-1.273q.338-.393.678-.773q-.103-.493-.198-.996a.976.976 0 0 1 .636-1.103q.49-.172.974-.331q.157-.479.327-.962A.976.976 0 0 1 4.6 1.552q.5.094.992.196q.374-.334.76-.666a.976.976 0 0 1 1.273 0q.39.334.764.67q.5-.105 1.009-.2a.976.976 0 0 1 1.102.636q.17.484.327.962q.484.16.974.331c.455.16.725.628.636 1.103q-.096.512-.201 1.013q.34.381.68.777a.976.976 0 0 1 .001 1.273q-.337.393-.678.773q.104.493.198.997a.976.976 0 0 1-.636 1.102q-.49.172-.974.331q-.158.48-.327.962a.976.976 0 0 1-1.102.637a53 53 0 0 1-.992-.197q-.374.335-.76.666a.976.976 0 0 1-1.273 0q-.39-.334-.764-.67q-.5.105-1.009.2a.976.976 0 0 1-1.102-.636a53 53 0 0 1-.327-.962a52 52 0 0 1-.974-.33a.976.976 0 0 1-.636-1.103q.096-.513.201-1.014a53 53 0 0 1-.68-.777Z"/><path stroke-linecap="round" d="M4.62 7.738L6.212 9.38C6.962 7.227 7.586 6.282 9 5"/></g></symbol>
<symbol id="streamline-freehand--tag-sale-price" viewBox="0 0 24 24"><g fill="currentColor" fill-rule="evenodd" clip-rule="evenodd"><path d="M22.677 15.118c-.812-1.232-5.09-5.42-6.162-6.552c-1.673-1.774-2.826-3.748-5.01-4.238c-1.372-.321-8.316.54-7.214 1.683a.35.35 0 0 0 .501 0c.481-.471 3.898-.932 6.533-.832a5.77 5.77 0 0 1 2.935 2.315c1.453 1.823 6.623 7.193 7.304 8.115q.182.271.311.571a25.8 25.8 0 0 1-4.94 5.57a6.3 6.3 0 0 1-2.214 1.183a47 47 0 0 1-4.338-3.707a69 69 0 0 1-4.629-5.12a6 6 0 0 1-1.062-3.486a.31.31 0 0 0-.621 0c.13 2.825.731 3.526 2.555 5.71a40.8 40.8 0 0 0 6.933 7.014a1.58 1.58 0 0 0 1.824.561c2.615-.802 5.57-4.599 7.073-6.512c.561-.732.922-1.183.22-2.275"/><path d="M8.72 9.758c.38-1.062.49-1.643-.37-2.315a2.204 2.204 0 0 0-3.207.401A8.4 8.4 0 0 1 2.879 5.84C1.716 4.538.594 2.364 1.897 1.232c.55-.491 1.523-.23 2.475.33c2.194 1.253 2.114 2.565 2.715 2.204c.841-.51-1.764-2.765-2.866-3.316C1.626-.862-.127.901.164 3.095c.36 2.665 2.474 4.469 4.819 5.63c.46 2.947 3.366 2.105 3.737 1.033m-.4-.872a1.293 1.293 0 0 1-2.546.13c.441.16.842.16.882-.1s-.521-.54-.912-.751c1.122-1.343 2.816-.1 2.575.721m14.768-2.254c-3.556-1.533-2.595-1.112-7.564-2.465c-.08 0-.591-.25-.872-.06a.34.34 0 0 0 .17.581q1.027.3 2.004.732a47 47 0 0 0 5.741 2.224c.832.37-.55 3.316-.54 4.007a.35.35 0 0 0 .7 0c.03-.831 2.295-3.957.361-5.02M9.842 12.243a.6.6 0 0 1-.3-.451a.371.371 0 1 0-.732 0a1.37 1.37 0 0 0 .792 1.392a1.263 1.263 0 0 0 1.673-.63c.13-.23.201-.488.21-.752a1.9 1.9 0 0 0-.11-.672c-.25-.69-.611-1.152.47-.29a.331.331 0 0 0 .522-.39c-.631-.792-1.383-1.494-2.134-.672a1.28 1.28 0 0 0-.26 1.002c0 .33.21.631.26 1.002a.53.53 0 0 1 0 .3c-.11.14-.24.25-.391.16m3.998-.701q-.351 0-.682.12a2.5 2.5 0 0 0-.821.502q-.428.42-.802.891l-.47.541l-.532.641a.33.33 0 0 0 .471.451l.611-.53l.14-.11v.1a.6.6 0 0 0 .28.3c.161.1.302.13.462.22c-.23.23-.47.481-.691.682a.373.373 0 1 0 .47.58c.452-.32 1.003-.69 1.464-1.101q.512-.445.901-1.002c.198-.364.279-.78.23-1.193a1.34 1.34 0 0 0-.46-.921a1.14 1.14 0 0 0-.571-.17m-.14 1.734a4.4 4.4 0 0 1-.602.871a2.2 2.2 0 0 0-.15-.47a.76.76 0 0 0-.28-.331c.12-.1.24-.2.37-.29c.13-.091 1.182-.762.661.22m1.654 1.211l-1.413 1.002a3.8 3.8 0 0 0-.731.821a1.16 1.16 0 0 0 0 1.063l.23.4l.33.391a.37.37 0 0 0 .572-.47l-.13-.322l-.1-.34v-.1c0-.03.14-.13.21-.2l.45-.422l1.002-1.372a.33.33 0 1 0-.45-.471zm1.753 2.825l.15.22q.094.099.2.181c.812.641.942.571 1.093.461c.15-.11.32-.15-.17-1.192a1.4 1.4 0 0 0-.161-.26a1.2 1.2 0 0 0-.23-.211c-.812-.541-1.002-.431-2.165.5c-.13.101-.22.231-.34.341c-.13.13-.27.25-.391.391q-.185.251-.32.531c-.09.191-.13.4-.12.611c.023.248.11.486.25.692c.13.18.791 1.002 1.162.58c.37-.42-.11-.52-.31-.951a.56.56 0 0 1 0-.32l.2-.221l.1.08c.811.511.942.42 1.072.3s.24-.26-.21-1.101a.8.8 0 0 0-.15-.21l.38-.462a.08.08 0 0 1-.04.04"/></g></symbol>
<symbol id="gis--globe-gear" viewBox="0 0 100 100"><path fill="currentColor" d="M42.5 0A2.5 2.5 0 0 0 40 2.5v9.283a39.3 39.3 0 0 0-9.936 4.139l-6.58-6.58a2.5 2.5 0 0 0-3.537 0L9.342 19.947a2.5 2.5 0 0 0 0 3.537l6.582 6.582A39.3 39.3 0 0 0 11.787 40H2.5A2.5 2.5 0 0 0 0 42.5v15A2.5 2.5 0 0 0 2.5 60h9.287a39.3 39.3 0 0 0 4.137 9.934l-6.582 6.582a2.5 2.5 0 0 0 0 3.537l10.605 10.605a2.5 2.5 0 0 0 3.537 0l6.58-6.58A39.3 39.3 0 0 0 40 88.2v9.3a2.5 2.5 0 0 0 2.5 2.5h15a2.5 2.5 0 0 0 2.5-2.5v-9.287a39 39 0 0 0 9.926-4.145l6.59 6.59c.976.976 2.56.976 3.537 0l10.605-10.605a2.5 2.5 0 0 0 0-3.537l-6.62-6.621A39.4 39.4 0 0 0 88.144 60H97.5a2.5 2.5 0 0 0 2.5-2.5v-15a2.5 2.5 0 0 0-2.5-2.5h-9.355a39.4 39.4 0 0 0-4.106-9.896l6.62-6.62a2.5 2.5 0 0 0 0-3.537L80.052 9.342a2.5 2.5 0 0 0-1.768-.733a2.5 2.5 0 0 0-1.77.733l-6.59 6.59A39.2 39.2 0 0 0 60 11.805V2.5A2.5 2.5 0 0 0 57.5 0zM50 17.5c17.99 0 32.5 14.51 32.5 32.5S67.99 82.5 50 82.5S17.5 67.99 17.5 50S32.01 17.5 50 17.5" color="currentColor"/><path fill="currentColor" d="M51.697 19.5v13.798h12c-.67-1.93-1.446-3.71-2.314-5.297c-2.692-4.922-6.11-7.888-9.686-8.501m-3.394.135c-3.347.836-6.524 3.733-9.057 8.366c-.868 1.587-1.644 3.367-2.314 5.297h11.37zm-7.82.925c-6.786 2.233-12.516 6.788-16.273 12.738h9.134c.806-2.526 1.787-4.86 2.927-6.946c1.217-2.224 2.634-4.185 4.212-5.792m19.965.316c1.456 1.547 2.77 3.395 3.909 5.476c1.14 2.085 2.12 4.42 2.924 6.946h8.51c-3.586-5.677-8.963-10.09-15.343-12.422M22.34 36.716a30.8 30.8 0 0 0-2.84 11.367h11.398c.131-4.014.65-7.839 1.495-11.367zm13.56 0c-.896 3.47-1.46 7.31-1.604 11.367h14.007V36.716Zm15.797 0v11.367h14.636c-.144-4.056-.708-7.897-1.605-11.367Zm16.534 0c.844 3.529 1.36 7.354 1.492 11.367H80.5a30.8 30.8 0 0 0-2.84-11.367ZM19.5 51.5a30.8 30.8 0 0 0 2.84 11.367h9.893c-.797-3.539-1.267-7.365-1.354-11.367zm14.773 0c.096 4.043.612 7.88 1.458 11.367h12.572V51.5Zm17.424 0v11.367h13.201c.845-3.487 1.362-7.324 1.457-11.367zm18.042 0c-.088 4.002-.554 7.828-1.349 11.367h9.27A30.8 30.8 0 0 0 80.5 51.5Zm-45.53 14.784c3.589 5.682 8.971 10.096 15.357 12.427c-1.212-1.4-2.319-3.012-3.295-4.796c-1.242-2.273-2.3-4.84-3.143-7.63zm12.488 0c.72 2.197 1.579 4.21 2.549 5.982c2.375 4.344 5.317 7.16 8.434 8.185c.207.016.414.037.623.048V66.285Zm15 0V80.5q.727-.04 1.444-.11c3.045-1.077 5.915-3.868 8.242-8.123c.97-1.773 1.828-3.785 2.548-5.982zm15.801 0c-.841 2.792-1.898 5.358-3.141 7.63a28 28 0 0 1-2.978 4.428A30.64 30.64 0 0 0 75.79 66.285z" color="currentColor"/></symbol>
<symbol id="solar--wheel-linear" viewBox="0 0 24 24"><g fill="none" stroke="currentColor" stroke-width="1.5"><circle cx="12" cy="12" r="10"/><circle cx="12" cy="12" r="6"/><circle cx="12" cy="12" r="2"/><path stroke-linecap="round" d="M6 12h4m4 0h4m-9 5.196l2-3.464m2-3.464l2-3.464m0 10.392l-2-3.464m-2-3.464L9 6.804"/></g></symbol>
<symbol id="mingcute--car-fill" viewBox="0 0 24 24"><g fill="none" fill-rule="evenodd"><path d="m12.594 23.258l-.012.002l-.071.035l-.02.004l-.014-.004l-.071-.036q-.016-.004-.024.006l-.004.01l-.017.428l.005.02l.01.013l.104.074l.015.004l.012-.004l.104-.074l.012-.016l.004-.017l-.017-.427q-.004-.016-.016-.018m.264-.113l-.014.002l-.184.093l-.01.01l-.003.011l.018.43l.005.012l.008.008l.201.092q.019.005.029-.008l.004-.014l-.034-.614q-.005-.019-.02-.022m-.715.002a.02.02 0 0 0-.027.006l-.006.014l-.034.614q.001.018.017.024l.015-.002l.201-.093l.01-.008l.003-.011l.018-.43l-.003-.012l-.01-.01z"/><path fill="currentColor" d="M15.764 4a3 3 0 0 1 2.683 1.658l1.386 2.771q.366-.15.72-.324a1 1 0 0 1 .894 1.79a32 32 0 0 1-.725.312l.961 1.923A3 3 0 0 1 22 13.473V16a3 3 0 0 1-1 2.236V19.5a1.5 1.5 0 0 1-3 0V19H6v.5a1.5 1.5 0 0 1-3 0v-1.264c-.614-.55-1-1.348-1-2.236v-2.528a3 3 0 0 1 .317-1.341l.953-1.908q-.362-.152-.715-.327a1.01 1.01 0 0 1-.45-1.343a1 1 0 0 1 1.342-.448q.355.175.72.324l1.386-2.77A3 3 0 0 1 8.236 4zM7.5 13a1.5 1.5 0 1 0 0 3a1.5 1.5 0 0 0 0-3m9 0a1.5 1.5 0 1 0 0 3a1.5 1.5 0 0 0 0-3m-.736-7H8.236a1 1 0 0 0-.832.445l-.062.108l-1.27 2.538C7.62 9.555 9.706 10 12 10c2.142 0 4.101-.388 5.61-.817l.317-.092l-1.269-2.538a1 1 0 0 0-.77-.545L15.765 6Z"/></g></symbol>
<symbol id="fontisto--truck" viewBox="0 0 21 24"><path fill="currentColor" d="M10.449 0c-3.64 0-6.71.201-7.168.468c-.8.273-1.402 2.09-1.404 4.246v1.071h-.218a.5.5 0 0 0-.088-.135a.6.6 0 0 0 .146-.392v-.544a.49.49 0 0 0-.427-.535H.432a.49.49 0 0 0-.428.539v-.002v.544c0 .15.055.288.146.393l-.001-.001a.6.6 0 0 0-.146.392V8.73q-.002.023-.002.048c0 .25.187.457.429.487h.859A.42.42 0 0 0 1.658 9l.001-.003h.218v4.822c0 .191.205.368.536.463v.626c-.473.061-.8.274-.8.518v5.36a2.96 2.96 0 0 0 .542 1.863l-.006-.009v.921c0 .243.197.44.44.44h1.798a.44.44 0 0 0 .44-.44v-.631h11.247v.631c0 .243.197.44.44.44h1.798a.44.44 0 0 0 .44-.44v-.92a2.96 2.96 0 0 0 .536-1.86v.007v-5.36c0-.244-.331-.457-.8-.518v-.626c.331-.095.535-.272.536-.463v-4.82h.218c.06.152.202.259.369.268h.855a.49.49 0 0 0 .428-.539v.002v-2.686a.6.6 0 0 0-.146-.393l.001.001a.6.6 0 0 0 .146-.392V4.72a.49.49 0 0 0-.427-.535h-.859a.49.49 0 0 0-.428.539v-.002v.544c0 .15.055.288.146.393l-.001-.001a.6.6 0 0 0-.087.131l-.001.003h-.218V4.716c0-2.167-.608-3.992-1.414-4.251c-.49-.266-3.545-.463-7.157-.463zM3.101 3.107h14.695c.259 0 .475.184.525.429l.001.003c.102.51.16 1.097.16 1.698v.038v-.002V9c0 .296-.24.536-.536.536H2.949A.536.536 0 0 1 2.413 9V5.238q.001-.903.169-1.756l-.009.057a.536.536 0 0 1 .526-.432zm.651 11.786H4.9c.143 0 .259.112.267.253v.001l.191 3.482v.014c0 .148-.12.268-.268.268H3.752a.27.27 0 0 1-.268-.268v-3.482c0-.148.12-.268.268-.268m12.245 0h1.148c.148 0 .268.12.268.268v3.479c0 .148-.12.268-.268.268h-1.339a.27.27 0 0 1-.268-.268v-.015v.001l.191-3.482c.01-.14.126-.25.267-.25h.001zm-9.968.64h8.84c.074 0 .134.06.134.134v.16c0 .074-.06.134-.134.134h-8.84a.134.134 0 0 1-.134-.134v-.16c0-.074.06-.134.134-.134m.053.964h8.733c.074 0 .134.06.134.134v.16c0 .074-.06.134-.134.134H6.082a.134.134 0 0 1-.134-.134v-.16c0-.074.06-.134.134-.134m.054.964h8.626c.074 0 .134.06.134.134v.16c0 .074-.06.134-.134.134H6.136a.133.133 0 0 1-.133-.128v-.16c0-.074.06-.134.134-.134zm.054.964h8.518c.074 0 .134.06.134.134v.16c0 .074-.06.134-.134.134H6.19a.134.134 0 0 1-.134-.134v-.16c0-.074.06-.134.134-.134"/></symbol>
<symbol id="bxs--bus" viewBox="0 0 24 24"><path fill="currentColor" d="M21 6.021c.003-.146-.007-1.465-1.3-2.735C18.427 2.036 17.143 2 17 2H6.996c-.239 0-1.493.063-2.708 1.302C3.036 4.578 3 5.859 3 6v3H2v3h1v6c0 .734.406 1.373 1 1.721V21a1 1 0 0 0 1 1h1a1 1 0 0 0 1-1v-1h10v1a1 1 0 0 0 1 1h1a1 1 0 0 0 1-1v-1.277A1.99 1.99 0 0 0 21 18v-6h1V9h-1zM9 4h6v2H9zM6.5 18a1.5 1.5 0 1 1 .001-3.001A1.5 1.5 0 0 1 6.5 18m4.5-5H5V8h6zm6.5 5a1.5 1.5 0 1 1 .001-3.001A1.5 1.5 0 0 1 17.5 18m1.5-5h-6V8h6z"/></symbol>
<symbol id="arcticons--bike" viewBox="0 0 48 48"><circle cx="36.671" cy="28.753" r="6.829" fill="currentColor" stroke="currentColor" stroke-linecap="round" stroke-linejoin="round" stroke-width="1"/><circle cx="11.329" cy="28.753" r="6.829" fill="none" stroke="currentColor" stroke-linecap="round" stroke-linejoin="round" stroke-width="1"/><path fill="none" stroke="currentColor" stroke-linecap="round" stroke-linejoin="round" d="m32.742 16.845l-9.265 11.908H11.329l9.299-11.908z" stroke-width="1"/><path fill="none" stroke="currentColor" stroke-linecap="round" stroke-linejoin="round" d="m36.671 28.753l-5.387-16.335H27.32m-7.584.652l3.741 15.683m-6.16-15.683h5.044" stroke-width="1"/></symbol>
<symbol id="game-icons--boat-propeller" viewBox="0 0 512 512"><path fill="currentColor" d="M309.15 21.209c-24.995-.374-50.098 14.428-64.076 63.611c-12.743 44.837-4.557 106.917 14.5 158.983c8.733-3.686 18.747-4.452 28.447-1.442c10.094 3.133 18.152 9.826 23.24 18.272c33.762-16.847 70.774-29.358 88.594-51.313c47.257-58.219 4.19-138.461-35.183-166.851c-14.175-10.221-34.811-20.95-55.522-21.26M135.72 207.832c-66.3-1.054-108.738 69.822-113.332 115.096c-3.894 38.368 5.81 105.23 96.476 82.398c44.995-11.33 94.419-49.163 129.946-91.465c-12.314-10.488-17.952-27.733-12.877-44.084a41.3 41.3 0 0 1 3.779-8.568c-32.11-20.996-61.997-47.643-90.418-52.178a96 96 0 0 0-13.574-1.199m139.908 50.63c-10.094-.024-19.338 6.442-22.506 16.65c-3.898 12.562 3 25.665 15.563 29.564c12.562 3.898 25.664-2.998 29.562-15.56c3.899-12.563-2.998-25.667-15.56-29.565a24 24 0 0 0-7.059-1.088zM316.9 287.84a41.4 41.4 0 0 1-1.464 6.61c-5.666 18.255-22.966 29.865-41.248 29.241c-2.283 37.694-9.975 76.046.136 102.479c26.791 70.035 117.817 72.857 162.09 52.955c35.175-15.813 88.228-57.646 23.121-124.75c-32.003-32.984-88.698-56.742-142.635-66.535"/></symbol>
<symbol id="game-icons--liberty-wing" viewBox="0 0 512 512"><path fill="currentColor" d="M487 37.1C396.4 53.23 292 95.28 207.5 140C163 163.6 124 187.8 95.39 209.2C81.08 220 69.36 230 60.93 238.6c-8.43 8.7-13.38 16.3-14.65 20.3c-9.04 28.7-3.42 57.7 1.73 84.7c9.55 50.4-3.23 88.9-22.98 126.3c25.24-5.7 45.36-19.8 57-47c8.47-19.8 9.13-37 11.43-57.6s6.45-44.2 22.44-73.2l.2-.4l.2-.4c8.8-12.6 26.2-22.2 50-33.4c23.7-11.2 53.6-23 86-35.1c63.8-23.8 137.2-48.7 190.1-71.3c20-30.1 34-74.24 44.6-114.4m-55 138.2c-51.7 21-116.6 43.1-173.5 64.3c-32.2 12-61.8 23.7-84.6 34.5c-22.6 10.7-38.5 21.6-42.6 27.2c-6.8 12.3-11.1 23.2-14 33.3c83.4-6.5 195.3-31.8 271.3-66.6c27.4-29.7 36.9-59.7 43.4-92.7m-58 118.8c-79 32.2-182 53.3-260.8 58.6c-.9 5-1.5 9.8-2 14.6c-.4 3.5-.7 7.1-1.1 10.6c72.4 7.5 136.3 4 206.2-6.5c32.6-22.5 49.8-49.6 57.7-77.3m-78.4 98.2c-62.3 8.1-121.6 10.2-187.6 3.4c-.7 4.5-1.6 9-2.7 13.6c35.9 19.2 98.1 25.8 140.7 24.6c30.2-12.4 41.5-24.8 49.6-41.6M99.78 426.7c-1.15 2.1-3.14 6.7-4.21 8.9c14.03 20.2 48.73 32.2 88.43 39.3c21.2-8 28.3-15.5 36.5-23c-39.7-1.1-86.7-7.7-120.7-25.2z"/></symbol>
<symbol id="openmoji--motor" viewBox="0 0 72 72"><path fill="#9b9b9a" d="M16.564 17.064h37.685l3.125 10.847h2.758v14.086h-3.171l-6.572 14.982h-31.16L13.255 42.77h-2.206V26.532h2.206z"/><circle cx="25.388" cy="29.275" r="5.883" fill="#d0cfce"/><circle cx="27.41" cy="46.11" r="4.044" fill="#d0cfce"/><circle cx="44.322" cy="36.023" r="7.85" fill="#d0cfce"/><path fill="#fff" d="M20.75 15.944c0-1.595 1.175-2.888 2.625-2.888S26 14.35 26 15.944m2.625 0c0-1.595 1.175-2.888 2.625-2.888s2.625 1.293 2.625 2.888m2.625 0c0-1.595 1.175-2.888 2.625-2.888s2.625 1.293 2.625 2.888m2.625 0c0-1.595 1.175-2.888 2.625-2.888s2.625 1.293 2.625 2.888"/><g fill="none" stroke="#000" stroke-linecap="round" stroke-linejoin="round" stroke-miterlimit="10" stroke-width="2"><path d="M16.564 17.064h37.685l3.125 10.847h2.758v14.086h-3.171l-6.572 14.982h-31.16L13.255 42.77h-2.206V26.532h2.206z"/><circle cx="25.388" cy="29.275" r="5.883"/><circle cx="27.41" cy="46.11" r="4.044"/><circle cx="44.322" cy="36.023" r="7.85"/><path d="m25.388 23.392l18.934 4.781m-24.817 1.102s2.252 14.997 3.86 18.444s4.045 2.435 4.045 2.435c4.044-.367 20.91-7.384 20.91-7.384M20.75 15.944c0-1.595 1.175-2.888 2.625-2.888S26 14.35 26 15.944m2.625 0c0-1.595 1.175-2.888 2.625-2.888s2.625 1.293 2.625 2.888m2.625 0c0-1.595 1.175-2.888 2.625-2.888s2.625 1.293 2.625 2.888m2.625 0c0-1.595 1.175-2.888 2.625-2.888s2.625 1.293 2.625 2.888"/></g></symbol>
<symbol id="mdi--horseshoe" viewBox="0 0 24 24"><path fill="currentColor" d="M19 4h1V1h-4v3s2 4 2 8s-2 7-6 7s-6-3-6-7s2-8 2-8V1H4v3h1S2 8 2 14c0 5 5 9 10 9s10-4 10-9c0-6-3-10-3-10M4 13c-.6 0-1-.4-1-1s.4-1 1-1s1 .4 1 1s-.4 1-1 1m2 6c-.6 0-1-.4-1-1s.4-1 1-1s1 .4 1 1s-.4 1-1 1m6 3c-.6 0-1-.4-1-1s.4-1 1-1s1 .4 1 1s-.4 1-1 1m6-3c-.6 0-1-.4-1-1s.4-1 1-1s1 .4 1 1s-.4 1-1 1m2-6c-.6 0-1-.4-1-1s.4-1 1-1s1 .4 1 1s-.4 1-1 1"/></symbol>
<symbol id="streamline-sharp--mine-cart-2" viewBox="0 0 24 24"><g fill="none" stroke="currentColor" stroke-width="1.5"><path d="M3.5 19.5a2.5 2.5 0 1 0 5 0a2.5 2.5 0 1 0-5 0m12 0a2.5 2.5 0 1 0 5 0a2.5 2.5 0 1 0-5 0"/><path d="M4.454 17.535L2.5 10.5h19l-1.954 7.035M8.5 19.5h7M4.5 8V6l3-2l3 1.5l4-3l5 3.5v2"/></g></symbol>
<symbol id="icon-park-outline--railway" viewBox="0 0 48 48"><g fill="none"><path stroke="currentColor" stroke-linejoin="round" stroke-width="4" d="M12 6a2 2 0 0 1 2-2h20a2 2 0 0 1 2 2v24a2 2 0 0 1-2 2H14a2 2 0 0 1-2-2z"/><circle cx="18" cy="26" r="2" fill="currentColor"/><circle cx="30" cy="26" r="2" fill="currentColor"/><path stroke="currentColor" stroke-linecap="round" stroke-linejoin="round" stroke-width="4" d="M12 20h24M21 38h6m-9 6h12"/><path stroke="currentColor" stroke-linecap="round" stroke-width="4" d="m17 32l-6 12m20-12l6 12"/><path stroke="currentColor" stroke-linecap="round" stroke-linejoin="round" stroke-width="4" d="M36 15v10M12 15v10"/></g></symbol>
<symbol id="hugeicons--crane" viewBox="0 0 24 24"><path fill="none" stroke="currentColor" stroke-linecap="round" stroke-linejoin="round" stroke-width="1.5" d="M15.254 16.001H5.25a3 3 0 1 0 0 6h10.003a3 3 0 1 0 0-6m-2.177-9.388l-1.67-1.546c-.568-.527-.852-.79-1.205-.928c-.352-.138-1.175-.138-1.95-.138h.004c-1.886 0-2.83 0-3.415.586c-.586.586-.586 1.528-.586 3.414v1c0 1.886 0 2.828.586 3.414s1.529.586 3.415.586h2.316c1.581 0 2.372 0 2.914-.422q.196-.153.35-.35c.422-.541.422-1.332.422-2.913c0-.724-.104-1.324-.223-1.653c-.161-.312-.427-.558-.958-1.05m0 0s3.041-3.372 3.498-3.792c.505-.404.78-.822 2.52-.816c.331-.007.72-.006 1.165-.006m0 3.498v.504m-.048 5.496v.444c0 .094.024.048.024.048c.122.005.48.096.48.096s1.092.336 1.032 1.536c-.033.66-.556 1.203-1.188 1.344c-.698.155-1.525-.204-1.8-.96m1.5-5.502v.498m-10.011 10h.009m-4.006 0h.009m7.984 0h.01" color="currentColor"/></symbol>
<symbol id="ix--cogwheel" viewBox="0 0 512 512"><path fill="currentColor" fill-rule="evenodd" d="M332.792 42.667v51.541a178 178 0 0 1 24.96 14.379l7.637-4.437l36.97-21.312l21.334 36.928l34.112 59.136l21.333 36.949l-36.928 21.333l-7.637 4.374c.427 4.842.64 9.642.64 14.442s-.213 9.6-.64 14.443l7.637 4.373l36.928 21.334l-21.333 36.949l-34.112 59.136l-21.333 36.928l-36.971-21.312l-7.637-4.437a178 178 0 0 1-24.96 14.378v51.542H179.213v-51.542a178 178 0 0 1-24.96-14.378l-7.659 4.437l-36.949 21.312l-21.333-36.928l-34.134-59.136l-21.333-36.95l36.95-21.333l7.615-4.373A173 173 0 0 1 76.792 256c0-4.8.213-9.6.618-14.442l-7.616-4.374l-36.949-21.333l21.333-36.95l34.134-59.135l21.333-36.928l36.95 21.312l7.658 4.437a178 178 0 0 1 24.96-14.379V42.667zm-42.667 42.667H221.88v38.613c-24.384 6.272-46.144 19.008-63.254 36.437L125.261 141.1l-34.133 59.136l33.408 19.285c-3.2 11.627-5.078 23.83-5.078 36.48c0 12.651 1.878 24.854 5.078 36.48l-33.408 19.286l34.133 59.136l33.365-19.286c17.11 17.43 38.87 30.166 63.254 36.438v38.613h68.245v-38.613c24.384-6.272 46.144-19.008 63.253-36.438l33.344 19.286l34.155-59.136l-33.408-19.286c3.2-11.626 5.077-23.829 5.077-36.48s-1.877-24.853-5.077-36.48l33.408-19.285l-34.155-59.136l-33.344 19.285c-17.109-17.429-38.869-30.165-63.253-36.437zM256 170.667c47.132 0 85.334 38.202 85.334 85.333S303.132 341.334 256 341.334c-47.131 0-85.333-38.202-85.333-85.334c0-47.131 38.202-85.333 85.333-85.333m0 42.667c-23.567 0-42.666 19.1-42.666 42.666c0 23.568 19.099 42.667 42.666 42.667s42.667-19.1 42.667-42.667s-19.1-42.666-42.667-42.666"/></symbol>
<symbol id="carbon--delivery-parcel" viewBox="0 0 32 32"><path fill="currentColor" d="m29.482 8.624l-10-5.5a1 1 0 0 0-.964 0l-10 5.5a1 1 0 0 0 0 1.752L18 15.591V26.31l-3.036-1.67L14 26.391l4.518 2.485a1 1 0 0 0 .964 0l10-5.5A1 1 0 0 0 30 22.5v-13a1 1 0 0 0-.518-.876M19 5.142L26.925 9.5L19 13.858L11.075 9.5Zm9 16.767l-8 4.4V15.59l8-4.4Z"/><path fill="currentColor" d="M10 16H2v-2h8zm2 8H4v-2h8zm2-4H6v-2h8z"/></symbol>
<symbol id="hugeicons--delivery-tracking-01" viewBox="0 0 24 24"><g fill="none" stroke="currentColor" stroke-linecap="round" stroke-linejoin="round" stroke-width="1.5" color="currentColor"><path d="M12.5 22h-1.611c-4.19 0-6.285 0-7.587-1.255C2 19.489 2 17.469 2 13.429V8h20v2.5"/><path d="M18 12c-2.21 0-4 1.809-4 4.04c0 1.276.5 2.268 1.5 3.155c.705.624 1.559 1.662 2.071 2.503c.246.403.594.403.858 0c.538-.825 1.366-1.879 2.071-2.503c1-.887 1.5-1.879 1.5-3.155c0-2.23-1.79-4.04-4-4.04m0 4h.009M2 8l.962-2.308c.745-1.79 1.118-2.684 1.874-3.188S6.56 2 8.5 2h7c1.939 0 2.908 0 3.664.504s1.129 1.399 1.874 3.188L22 8M12 8V2m-2 10h2"/></g></symbol>
<symbol id="mdi--hours-24" viewBox="0 0 24 24"><path fill="currentColor" d="M13 2.05v2.02c3.95.49 7 3.85 7 7.93c0 3.21-1.92 6-4.72 7.28L13 17v5h5l-1.22-1.22C19.91 19.07 22 15.76 22 12c0-5.18-3.95-9.45-9-9.95M11 2c-1.95.2-3.8.96-5.32 2.21L7.1 5.63A8.2 8.2 0 0 1 11 4zM4.2 5.68C2.96 7.2 2.2 9.05 2 11h2c.19-1.42.75-2.77 1.63-3.9zM6 8v2h3v1H8c-1.1 0-2 .9-2 2v3h5v-2H8v-1h1c1.11 0 2-.89 2-2v-1a2 2 0 0 0-2-2zm6 0v5h3v3h2v-3h1v-2h-1V8h-2v3h-1V8zM2 13c.2 1.95.97 3.8 2.22 5.32l1.42-1.42A8.2 8.2 0 0 1 4 13zm5.11 5.37l-1.43 1.42A10.04 10.04 0 0 0 11 22v-2a8.06 8.06 0 0 1-3.89-1.63"/></symbol>
<symbol id="flat-color-icons--sales-performance" viewBox="0 0 48 48"><g fill="#ffa000"><path d="M38 13c-3.3 0-6-.9-6-2v2c0 1.1 2.7 2 6 2s6-.9 6-2v-2c0 1.1-2.7 2-6 2"/><path d="M38 10c-3.3 0-6-.9-6-2v2c0 1.1 2.7 2 6 2s6-.9 6-2V8c0 1.1-2.7 2-6 2m0 6c-3.3 0-6-.9-6-2v2c0 1.1 2.7 2 6 2s6-.9 6-2v-2c0 1.1-2.7 2-6 2"/><path d="M38 19c-3.3 0-6-.9-6-2v2c0 1.1 2.7 2 6 2s6-.9 6-2v-2c0 1.1-2.7 2-6 2"/><path d="M38 22c-3.3 0-6-.9-6-2v2c0 1.1 2.7 2 6 2s6-.9 6-2v-2c0 1.1-2.7 2-6 2"/><path d="M38 25c-3.3 0-6-.9-6-2v2c0 1.1 2.7 2 6 2s6-.9 6-2v-2c0 1.1-2.7 2-6 2"/><path d="M38 28c-3.3 0-6-.9-6-2v2c0 1.1 2.7 2 6 2s6-.9 6-2v-2c0 1.1-2.7 2-6 2"/><path d="M38 31c-3.3 0-6-.9-6-2v2c0 1.1 2.7 2 6 2s6-.9 6-2v-2c0 1.1-2.7 2-6 2"/><path d="M38 34c-3.3 0-6-.9-6-2v2c0 1.1 2.7 2 6 2s6-.9 6-2v-2c0 1.1-2.7 2-6 2"/><path d="M38 37c-3.3 0-6-.9-6-2v2c0 1.1 2.7 2 6 2s6-.9 6-2v-2c0 1.1-2.7 2-6 2"/><path d="M38 40c-3.3 0-6-.9-6-2v2c0 1.1 2.7 2 6 2s6-.9 6-2v-2c0 1.1-2.7 2-6 2"/></g><g fill="#ffc107"><ellipse cx="38" cy="8" rx="6" ry="2"/><path d="M38 12c-2.8 0-5.1-.6-5.8-1.5c-.1.2-.2.3-.2.5c0 1.1 2.7 2 6 2s6-.9 6-2c0-.2-.1-.3-.2-.5c-.7.9-3 1.5-5.8 1.5m0 3c-2.8 0-5.1-.6-5.8-1.5c-.1.2-.2.3-.2.5c0 1.1 2.7 2 6 2s6-.9 6-2c0-.2-.1-.3-.2-.5c-.7.9-3 1.5-5.8 1.5m0 3c-2.8 0-5.1-.6-5.8-1.5c-.1.2-.2.3-.2.5c0 1.1 2.7 2 6 2s6-.9 6-2c0-.2-.1-.3-.2-.5c-.7.9-3 1.5-5.8 1.5m0 3c-2.8 0-5.1-.6-5.8-1.5c-.1.2-.2.3-.2.5c0 1.1 2.7 2 6 2s6-.9 6-2c0-.2-.1-.3-.2-.5c-.7.9-3 1.5-5.8 1.5m0 3c-2.8 0-5.1-.6-5.8-1.5c-.1.2-.2.3-.2.5c0 1.1 2.7 2 6 2s6-.9 6-2c0-.2-.1-.3-.2-.5c-.7.9-3 1.5-5.8 1.5m0 3c-2.8 0-5.1-.6-5.8-1.5c-.1.2-.2.3-.2.5c0 1.1 2.7 2 6 2s6-.9 6-2c0-.2-.1-.3-.2-.5c-.7.9-3 1.5-5.8 1.5m0 3c-2.8 0-5.1-.6-5.8-1.5c-.1.2-.2.3-.2.5c0 1.1 2.7 2 6 2s6-.9 6-2c0-.2-.1-.3-.2-.5c-.7.9-3 1.5-5.8 1.5m0 3c-2.8 0-5.1-.6-5.8-1.5c-.1.2-.2.3-.2.5c0 1.1 2.7 2 6 2s6-.9 6-2c0-.2-.1-.3-.2-.5c-.7.9-3 1.5-5.8 1.5m0 3c-2.8 0-5.1-.6-5.8-1.5c-.1.2-.2.3-.2.5c0 1.1 2.7 2 6 2s6-.9 6-2c0-.2-.1-.3-.2-.5c-.7.9-3 1.5-5.8 1.5m0 3c-2.8 0-5.1-.6-5.8-1.5c-.1.2-.2.3-.2.5c0 1.1 2.7 2 6 2s6-.9 6-2c0-.2-.1-.3-.2-.5c-.7.9-3 1.5-5.8 1.5"/></g><g fill="#ffa000"><path d="M10 19c-3.3 0-6-.9-6-2v2c0 1.1 2.7 2 6 2s6-.9 6-2v-2c0 1.1-2.7 2-6 2"/><path d="M10 16c-3.3 0-6-.9-6-2v2c0 1.1 2.7 2 6 2s6-.9 6-2v-2c0 1.1-2.7 2-6 2m0 6c-3.3 0-6-.9-6-2v2c0 1.1 2.7 2 6 2s6-.9 6-2v-2c0 1.1-2.7 2-6 2"/><path d="M10 25c-3.3 0-6-.9-6-2v2c0 1.1 2.7 2 6 2s6-.9 6-2v-2c0 1.1-2.7 2-6 2"/><path d="M10 28c-3.3 0-6-.9-6-2v2c0 1.1 2.7 2 6 2s6-.9 6-2v-2c0 1.1-2.7 2-6 2"/><path d="M10 31c-3.3 0-6-.9-6-2v2c0 1.1 2.7 2 6 2s6-.9 6-2v-2c0 1.1-2.7 2-6 2"/><path d="M10 34c-3.3 0-6-.9-6-2v2c0 1.1 2.7 2 6 2s6-.9 6-2v-2c0 1.1-2.7 2-6 2"/><path d="M10 37c-3.3 0-6-.9-6-2v2c0 1.1 2.7 2 6 2s6-.9 6-2v-2c0 1.1-2.7 2-6 2"/><path d="M10 40c-3.3 0-6-.9-6-2v2c0 1.1 2.7 2 6 2s6-.9 6-2v-2c0 1.1-2.7 2-6 2"/></g><g fill="#ffc107"><ellipse cx="10" cy="14" rx="6" ry="2"/><path d="M10 18c-2.8 0-5.1-.6-5.8-1.5c-.1.2-.2.3-.2.5c0 1.1 2.7 2 6 2s6-.9 6-2c0-.2-.1-.3-.2-.5c-.7.9-3 1.5-5.8 1.5m0 3c-2.8 0-5.1-.6-5.8-1.5c-.1.2-.2.3-.2.5c0 1.1 2.7 2 6 2s6-.9 6-2c0-.2-.1-.3-.2-.5c-.7.9-3 1.5-5.8 1.5m0 3c-2.8 0-5.1-.6-5.8-1.5c-.1.2-.2.3-.2.5c0 1.1 2.7 2 6 2s6-.9 6-2c0-.2-.1-.3-.2-.5c-.7.9-3 1.5-5.8 1.5m0 3c-2.8 0-5.1-.6-5.8-1.5c-.1.2-.2.3-.2.5c0 1.1 2.7 2 6 2s6-.9 6-2c0-.2-.1-.3-.2-.5c-.7.9-3 1.5-5.8 1.5m0 3c-2.8 0-5.1-.6-5.8-1.5c-.1.2-.2.3-.2.5c0 1.1 2.7 2 6 2s6-.9 6-2c0-.2-.1-.3-.2-.5c-.7.9-3 1.5-5.8 1.5m0 3c-2.8 0-5.1-.6-5.8-1.5c-.1.2-.2.3-.2.5c0 1.1 2.7 2 6 2s6-.9 6-2c0-.2-.1-.3-.2-.5c-.7.9-3 1.5-5.8 1.5m0 3c-2.8 0-5.1-.6-5.8-1.5c-.1.2-.2.3-.2.5c0 1.1 2.7 2 6 2s6-.9 6-2c0-.2-.1-.3-.2-.5c-.7.9-3 1.5-5.8 1.5m0 3c-2.8 0-5.1-.6-5.8-1.5c-.1.2-.2.3-.2.5c0 1.1 2.7 2 6 2s6-.9 6-2c0-.2-.1-.3-.2-.5c-.7.9-3 1.5-5.8 1.5"/></g><g fill="#ffa000"><path d="M24 28c-3.3 0-6-.9-6-2v2c0 1.1 2.7 2 6 2s6-.9 6-2v-2c0 1.1-2.7 2-6 2"/><path d="M24 25c-3.3 0-6-.9-6-2v2c0 1.1 2.7 2 6 2s6-.9 6-2v-2c0 1.1-2.7 2-6 2m0 6c-3.3 0-6-.9-6-2v2c0 1.1 2.7 2 6 2s6-.9 6-2v-2c0 1.1-2.7 2-6 2"/><path d="M24 34c-3.3 0-6-.9-6-2v2c0 1.1 2.7 2 6 2s6-.9 6-2v-2c0 1.1-2.7 2-6 2"/><path d="M24 37c-3.3 0-6-.9-6-2v2c0 1.1 2.7 2 6 2s6-.9 6-2v-2c0 1.1-2.7 2-6 2"/><path d="M24 40c-3.3 0-6-.9-6-2v2c0 1.1 2.7 2 6 2s6-.9 6-2v-2c0 1.1-2.7 2-6 2"/></g><g fill="#ffc107"><ellipse cx="24" cy="23" rx="6" ry="2"/><path d="M24 27c-2.8 0-5.1-.6-5.8-1.5c-.1.2-.2.3-.2.5c0 1.1 2.7 2 6 2s6-.9 6-2c0-.2-.1-.3-.2-.5c-.7.9-3 1.5-5.8 1.5m0 3c-2.8 0-5.1-.6-5.8-1.5c-.1.2-.2.3-.2.5c0 1.1 2.7 2 6 2s6-.9 6-2c0-.2-.1-.3-.2-.5c-.7.9-3 1.5-5.8 1.5m0 3c-2.8 0-5.1-.6-5.8-1.5c-.1.2-.2.3-.2.5c0 1.1 2.7 2 6 2s6-.9 6-2c0-.2-.1-.3-.2-.5c-.7.9-3 1.5-5.8 1.5m0 3c-2.8 0-5.1-.6-5.8-1.5c-.1.2-.2.3-.2.5c0 1.1 2.7 2 6 2s6-.9 6-2c0-.2-.1-.3-.2-.5c-.7.9-3 1.5-5.8 1.5m0 3c-2.8 0-5.1-.6-5.8-1.5c-.1.2-.2.3-.2.5c0 1.1 2.7 2 6 2s6-.9 6-2c0-.2-.1-.3-.2-.5c-.7.9-3 1.5-5.8 1.5"/></g></symbol>
<symbol id="system-uicons--reset-forward" viewBox="0 0 21 21"><g fill="none" fill-rule="evenodd" stroke="currentColor" stroke-linecap="round" stroke-linejoin="round" stroke-width="1"><path d="M6.5 3.5c-2.414 1.377-4 4.022-4 7a8 8 0 1 0 8-8"/><path d="M6.5 7.5v-4h-4"/></g></symbol>
<symbol id="mage--filter" viewBox="0 0 24 24"><path fill="none" stroke="currentColor" stroke-linecap="round" stroke-miterlimit="10" stroke-width="1.5" d="M21.25 12H8.895m-4.361 0H2.75m18.5 6.607h-5.748m-4.361 0H2.75m18.5-13.214h-3.105m-4.361 0H2.75m13.214 2.18a2.18 2.18 0 1 0 0-4.36a2.18 2.18 0 0 0 0 4.36Zm-9.25 6.607a2.18 2.18 0 1 0 0-4.36a2.18 2.18 0 0 0 0 4.36Zm6.607 6.608a2.18 2.18 0 1 0 0-4.361a2.18 2.18 0 0 0 0 4.36Z"/></symbol>
<symbol id="mdi--alert-outline" viewBox="0 0 24 24"><path fill="currentColor" d="M12 2L1 21h22M12 6l7.53 13H4.47M11 10v4h2v-4m-2 6v2h2v-2"/></symbol>
<symbol id="eos-icons--three-dots-loading" viewBox="0 0 24 24"><circle cx="18" cy="12" r="0" fill="currentColor"><animate attributeName="r" begin=".67" calcMode="spline" dur="1.5s" keySplines="0.2 0.2 0.4 0.8;0.2 0.2 0.4 0.8;0.2 0.2 0.4 0.8" repeatCount="indefinite" values="0;2;0;0"/></circle><circle cx="12" cy="12" r="0" fill="currentColor"><animate attributeName="r" begin=".33" calcMode="spline" dur="1.5s" keySplines="0.2 0.2 0.4 0.8;0.2 0.2 0.4 0.8;0.2 0.2 0.4 0.8" repeatCount="indefinite" values="0;2;0;0"/></circle><circle cx="6" cy="12" r="0" fill="currentColor"><animate attributeName="r" begin="0" calcMode="spline" dur="1.5s" keySplines="0.2 0.2 0.4 0.8;0.2 0.2 0.4 0.8;0.2 0.2 0.4 0.8" repeatCount="indefinite" values="0;2;0;0"/></circle></symbol>
<symbol id="icon-park-outline--list-success" viewBox="0 0 48 48"><g fill="none" stroke="currentColor" stroke-linecap="round" stroke-linejoin="round" stroke-width="4"><path d="M20 10h24M20 24h24M20 38h24"/><circle cx="8" cy="24" r="4"/><circle cx="8" cy="38" r="4"/><path d="m4 10l3 3l6-6"/></g></symbol>
<symbol id="streamline-cyber--shopping-bag-frown" viewBox="0 0 24 24"><g fill="none" stroke="currentColor" stroke-linecap="round" stroke-linejoin="round" stroke-width="1"><path stroke-miterlimit="10" d="m16 20l-2-1.5h-4L8 20m8.5-10.5v-6L12 .5l-4.5 3v6"/><path stroke-miterlimit="10" d="M21 23.5H3l1-17h16z"/><path d="m7.494 13.99l.505.505l-.505.505m0-1.01l-.504.505l.504.505m9.011-1.01l.505.505l-.505.505m0-1.01l-.505.505l.505.505"/></g></symbol>
<symbol id="streamline-cyber--shopping-product" viewBox="0 0 24 24"><g fill="none" stroke="currentColor" stroke-linecap="round" stroke-linejoin="round" stroke-miterlimit="10" stroke-width="1"><path d="M9.5 21.5h-9v-14h12v4"/><path d="M23.5 13.5h-12v8h12zm-2-7h-7v7h7zm-18 4v-7h6v7"/><path d="M16.5 8.5v-4h3v4m-8 9h12m-6 4v-8"/></g></symbol>
<symbol id="streamline-freehand--products-shopping-bags" viewBox="0 0 24 24"><g fill="currentColor" fill-rule="evenodd" clip-rule="evenodd"><path d="M23.41 17.392c0-.08-.11-2.4-.17-2.48a6.4 6.4 0 0 0-1.061-.9a.293.293 0 0 0-.415.025a.294.294 0 0 0 .025.415c.12.11.35.58.59.8c-.4.18-2.38.77-2.77.87a9.3 9.3 0 0 0-2.17-1.49a20 20 0 0 0 3.07-1c4-2.08 0-6.451-2.78-1.76c-1.08-1.71-3.731-3.17-5.221-1.71s.47 3 2.17 3.94q.661.316 1.36.54c-1.05.4-1.85.27-2.65.89c-2-1.22-2-1.38-2.16-1.43c.27-.18.571-.306.89-.37a.34.34 0 1 0 0-.68c-.7 0-1.95.22-2 .94a23 23 0 0 0-.18 3.63c-.035.92.1 1.84.4 2.71a31 31 0 0 0 4.38 3.121a2.17 2.17 0 0 0 1.78.52a22 22 0 0 0 2.66-.73a12.2 12.2 0 0 0 3.831-1.83c.24-.16.93-.29.86-1.11a24 24 0 0 1-.44-2.91m-4.822-4.75c1.4-2.93 3.26-1.77 2.53-.64a5 5 0 0 1-2.92 1.72a10 10 0 0 0 .39-1.08m-5.42-1.79c1-.9 3 .54 3.61 1.64c.34.58.43 1.37-.22 1.59a12 12 0 0 1-1.5-.64c-.89-.54-2.67-1.89-1.89-2.59m3.63 4.23c.29.31 1.08.83 1.58 1.27c-2.59.38-2 .91-4-.22c.61-.34 2.12-.81 2.42-1.05m-5.69 4a39 39 0 0 1-.24-4.47a24 24 0 0 0 2.06 1.67a38 38 0 0 0-.45 4.58c-1.77-1.53-1.29-1.15-1.37-1.8zm2 2.27c.16-.24.86-4.24.87-4.36q.512.349 1.06.64q.03 2.117-.18 4.22a5.5 5.5 0 0 0 0 .911c-.5-.39-1.15-.9-1.79-1.43zm3.13 1.601c-.2.05-.32 0-.36-.09c-.22-.55 0-2.64-.16-5a5.7 5.7 0 0 0 2.2-.29c.45-.06.88-.12 1.31-.22c.614 1.318 1 2.732 1.14 4.18a31 31 0 0 1-4.17 1.4zm4.75-1.66a7.94 7.94 0 0 0-.7-4.29l2.071-.87c.66-.22.07 0 .33 1.28l.3 2.75a12 12 0 0 1-2 1.13"/><path d="M9.357 5.34c.89 0 1.8-.09 2.69-.06c2.76.07 2.16.26 2.25.54l.39 1.921a.3.3 0 0 0 .591-.08c-.28-2.57-.22-2.77-.75-3a10 10 0 0 0-1.93-.44a4.5 4.5 0 0 0-1-2.85a2.73 2.73 0 0 0-4.001 0a8.9 8.9 0 0 0-1.38 3c0 .14.3.07-2.1.26c.245-.973.58-1.92 1-2.83A1.91 1.91 0 0 1 7.177.8a.341.341 0 0 0 .13-.67a3.1 3.1 0 0 0-1.54-.06a2.94 2.94 0 0 0-2.17 2.49q-.18 1.069-.22 2.15c-.73 0-.82 0-.9.16s-.21.13-.41 1.25C1.305 9.242 1.065 9.702.755 11.052a23 23 0 0 0-.61 4.381c.19 1.81 2.17 1.46 3.72 1.49l3.7.18a.34.34 0 0 0 .08-.67l-2.66-.26a21 21 0 0 0-.06-2.17A65 65 0 0 0 4.237 6c0-.25 0-.38-.08-.56c2.18 0 2.83.02 5.201-.1m-1.22-2.95c1.11-1.32 3.26-1 3.73 1.79a28 28 0 0 0-4.94.25c.328-.721.734-1.405 1.21-2.04m-3.83 13.702c-.91-.09-1.55-.09-2.22-.16c-.921-.15-.881-.34-.841-.92s.57-3.93 1.15-6.49c.53-3.591.38-3.001.77-3.091h.32q-.015.33.07.65c0 2 0 4 .08 5.23c.06.69.55 4.381.67 4.781"/></g></symbol>
<symbol id="hugeicons--file-download" viewBox="0 0 24 24"><g fill="none" stroke="currentColor" stroke-linecap="round" stroke-linejoin="round" stroke-width="1.5" color="currentColor"><path d="M12.5 2h.273c3.26 0 4.892 0 6.024.798c.324.228.612.5.855.805c.848 1.066.848 2.6.848 5.67v2.545c0 2.963 0 4.445-.469 5.628c-.754 1.903-2.348 3.403-4.37 4.113c-1.257.441-2.83.441-5.98.441c-1.798 0-2.698 0-3.416-.252c-1.155-.406-2.066-1.263-2.497-2.35c-.268-.676-.268-1.523-.268-3.216V12"/><path d="M20.5 12a3.333 3.333 0 0 1-3.333 3.333c-.666 0-1.451-.116-2.098.057a1.67 1.67 0 0 0-1.179 1.179c-.173.647-.057 1.432-.057 2.098A3.333 3.333 0 0 1 10.5 22m-6-14.5C4.992 8.006 6.3 10 7 10m2.5-2.5C9.008 8.006 7.7 10 7 10m0 0V2"/></g></symbol>
<symbol id="bx--store" viewBox="0 0 24 24"><path fill="currentColor" d="M19.148 2.971A2.01 2.01 0 0 0 17.434 2H6.566c-.698 0-1.355.372-1.714.971L2.143 7.485A1 1 0 0 0 2 8a3.97 3.97 0 0 0 1 2.618V19c0 1.103.897 2 2 2h14c1.103 0 2-.897 2-2v-8.382A3.97 3.97 0 0 0 22 8a1 1 0 0 0-.143-.515zm.836 5.28A2 2 0 0 1 18 10c-1.103 0-2-.897-2-2c0-.068-.025-.128-.039-.192l.02-.004L15.22 4h2.214zM10.819 4h2.361l.813 4.065C13.958 9.137 13.08 10 12 10s-1.958-.863-1.993-1.935zM6.566 4H8.78l-.76 3.804l.02.004C8.025 7.872 8 7.932 8 8c0 1.103-.897 2-2 2a2 2 0 0 1-1.984-1.749zM10 19v-3h4v3zm6 0v-3c0-1.103-.897-2-2-2h-4c-1.103 0-2 .897-2 2v3H5v-7.142c.321.083.652.142 1 .142a4 4 0 0 0 3-1.357c.733.832 1.807 1.357 3 1.357s2.267-.525 3-1.357A4 4 0 0 0 18 12c.348 0 .679-.059 1-.142V19z"/></symbol>
<symbol id="system-uicons--menu-vertical" viewBox="0 0 21 21"><g fill="currentColor" fill-rule="evenodd"><circle cx="10.5" cy="10.5" r="1"/><circle cx="10.5" cy="5.5" r="1"/><circle cx="10.5" cy="15.5" r="1"/></g></symbol>
<symbol id="system-uicons--menu-horizontal" viewBox="0 0 21 21"><g fill="currentColor" fill-rule="evenodd"><circle cx="10.5" cy="10.5" r="1"/><circle cx="5.5" cy="10.5" r="1"/><circle cx="15.5" cy="10.5" r="1"/></g></symbol>
<symbol id="icon-park-outline--people-top" viewBox="0 0 48 48"><path fill="none" stroke="currentColor" stroke-linecap="round" stroke-linejoin="round" stroke-width="4" d="M19 20a7 7 0 1 0 0-14a7 7 0 0 0 0 14m13 0l6-6l6 6M4 40.8V42h30v-1.2c0-4.48 0-6.72-.872-8.432a8 8 0 0 0-3.496-3.496C27.92 28 25.68 28 21.2 28h-4.4c-4.48 0-6.72 0-8.432.872a8 8 0 0 0-3.496 3.496C4 34.08 4 36.32 4 40.8"/></symbol>
<symbol id="streamline-ultimate--startup-product-rocket-box" viewBox="0 0 24 24"><g fill="none" stroke="currentColor" stroke-width="1.5"><path stroke-linecap="round" stroke-linejoin="round" d="m1 18.127l11 3m0 0l11-3m-22 0l5.493-1.439m-5.493 6v-4.436m22 0v4.436m-11 .5v-2.061m3.5-15.065c0 1.933-.583 7-3.5 7S8.5 8 8.5 6.062c0-3.5 3.5-5.25 3.5-5.25s3.5 1.75 3.5 5.25"/><path d="M12 5.937a.5.5 0 0 1 0-1m0 1a.5.5 0 0 0 0-1"/><path stroke-linecap="round" stroke-linejoin="round" d="M10.01 17.881v-1.008a2.017 2.017 0 0 1 3.99.08v.928m-4.317-5.72l-.808.405a5.3 5.3 0 0 0-1.242.916a.653.653 0 0 1-1.13-.417a3.49 3.49 0 0 1 2.113-3.61m5.701 2.706l.808.405c.457.243.875.551 1.242.916a.654.654 0 0 0 1.13-.417a3.49 3.49 0 0 0-2.113-3.61M23 18.127l-5.493-1.439"/></g></symbol>
<symbol id="streamline-freehand--upload-menu" viewBox="0 0 24 24"><path fill="currentColor" fill-rule="evenodd" d="M6.26 1.06c5.842.73 8.607-.291 12.896-.362a.34.34 0 0 0 0-.68c-2.115-.031-4.239-.031-6.533.08c-7.315.42-7.355.17-7.896.3a.31.31 0 0 0-.19.49c.565.13 1.144.187 1.723.171m12.896 2.154c-2.125 0-4.249-.05-6.533.08c-7.605.441-7.906.1-8.106.441a.29.29 0 0 0 0 .351a7 7 0 0 0 1.723.18c5.842.732 8.657-.27 12.916-.37a.34.34 0 1 0 0-.682m0 2.907c-2.125 0-4.239-.061-6.533.08c-7.615.44-7.906.1-8.106.44a.27.27 0 0 0 0 .34a7 7 0 0 0 1.723.181c5.842.732 8.607-.29 12.896-.37a.34.34 0 1 0 .02-.672m-2.315 8.327a16.7 16.7 0 0 0-2.575-4.129c-.481-.53-.832-1.202-1.773-1.132c-2.345.17-7.425 6.062-6.012 7.745c.66.792 3.276-1.002 4.008-1.663c.12 1.162.761 7.745 1.002 8.567a.28.28 0 0 0 .53-.17c-.29-1.002-.7-8.407-.791-9.088c-.09-.682-.812-.621-1.252-.06a7.1 7.1 0 0 1-2.746 1.623q.056-.361.21-.691c.682-1.584 3.588-5.08 5.16-5.2c.762-.06 3.387 4.157 3.858 5.65c-1.342-.57-2.555-2.084-3.076-2.074a.51.51 0 0 0-.41.541c.13 1.323.28-.922-.792 9.359a.32.32 0 0 0 .631 0c0 .07 1.263-6.503 1.082-8.567c.712.601 1.724 1.633 2.866 1.673c.5 0 .842-.36.611-1.182a9 9 0 0 0-.53-1.203" clip-rule="evenodd"/></symbol>
<symbol id="streamline-ultimate--shop-like" viewBox="0 0 24 24"><g fill="none" stroke="currentColor" stroke-linecap="round" stroke-linejoin="round" stroke-width="1.5"><path d="M4.79.75a1 1 0 0 0-.9.66L2.38 5.69a2.2 2.2 0 0 0 0 1.43A2.66 2.66 0 0 0 4.84 9a2.74 2.74 0 0 0 2.64-2.84A2.74 2.74 0 0 0 10.11 9a2.74 2.74 0 0 0 2.64-2.84A2.74 2.74 0 0 0 15.39 9A2.74 2.74 0 0 0 18 6.16A2.74 2.74 0 0 0 20.66 9a2.66 2.66 0 0 0 2.48-1.88a2.2 2.2 0 0 0 0-1.43l-1.53-4.28a1 1 0 0 0-.9-.66zM3.75 12V8.74"/><path d="M21.75 8.74V19.5a1.5 1.5 0 0 1-1.5 1.5h-3M.75 16.5H4.5v6.75H.75"/><path d="M6.25 13.5a1.75 1.75 0 0 1 3.5 0v1.32a.74.74 0 0 0 .57.72l1.73.16a2.26 2.26 0 0 1 1.7 2.3l-.15 2.55a3 3 0 0 1-3 2.7H7.92q-.419 0-.82-.12l-1.82-.51a2.6 2.6 0 0 0-.78-.12v-4.85a4.94 4.94 0 0 0 1.75-4.15"/></g></symbol>
<symbol id="arcticons--tops" viewBox="0 0 48 48"><path fill="none" stroke="currentColor" stroke-linecap="round" stroke-linejoin="round" d="M39.736 20.575c-.667-.476-3.054-.93-4.464-.224c-.94.47-1.495 1.847-.01 2.49c1.243.54 2.358.251 3.809.793c1.517.566.93 2.02-.01 2.49c-1.41.707-4.146.253-4.812-.223m-8.943-2.61a3.273 3.273 0 0 0 3.275 3.271h.002c1.809 0 3.276-1.464 3.276-3.27s-1.467-3.27-3.276-3.27a3.273 3.273 0 0 0-3.277 3.27q0 0 0 0v6.535m-2.867-6.535a3.273 3.273 0 0 1-3.276 3.27h0a3.273 3.273 0 0 1-3.276-3.27h0a3.273 3.273 0 0 1 3.276-3.27h0a3.273 3.273 0 0 1 3.276 3.27M12.2 18.173h4.202m-8.403 0h4.2v8.39" stroke-width="1"/><rect width="37" height="37" x="5.5" y="5.5" fill="none" stroke="currentColor" stroke-linecap="round" stroke-linejoin="round" rx="4" ry="4" stroke-width="1"/></symbol>
<symbol id="noto-v1--fire" viewBox="0 0 128 128"><path fill="#ed6c30" d="M98.59 51.16c-4.23.92-7.88 3.28-9.59 7.35c-1.03 2.47-2.47 8.85-6.42 7.2c-1.89-.78-1.86-3.49-1.64-5.18c.47-3.47 2.03-6.64 3.1-9.94c1.1-3.42 2.05-6.86 2.73-10.4c2.28-11.72 1.65-25.22-6.64-34.59C78.73 4 75.2.3 72.87.22c-1.44-.04-.02 1.66.38 2.23c.81 1.17 1.49 2.44 2.01 3.77c6.13 15.64-8.98 27.55-18.91 36.82c-4.76 4.45-8.56 9.17-11.98 14.68c-.34.53-1.09 2.31-2.06 1.94c-1.15-.44-1.27-3.07-1.63-4.05c-.68-1.88-1.73-3.93-3.08-5.4c-2.61-2.86-6.26-4.79-10.21-4.53c-.15.01-.58.08-1.11.2c-.83.18-3.05.47-2.45 1.81c.31.69 1.22.63 1.87.82c8.34 2.56 8.15 11.3 6.8 18.32c-2.44 12.78-9.2 24.86-4.4 38c5.66 15.49 23.38 25.16 39.46 22.5c4.39-.72 9.45-2.14 13.39-4.26c4.19-2.26 8.78-5.35 12.05-8.83c4.21-4.47 6.89-10.2 7.68-16.27c.93-7.02-1.31-13.64-3.35-20.27c-2.46-8-5.29-21.06 4.93-24.97c.5-.2 1.5-.35 1.85-.88c1.3-1.94-4.94-.81-5.52-.69"/><path fill="#fcc21b" d="M68.13 106.07c2.12 1.78 5.09.91 7.09-.61c1.07-.81 1.99-1.85 2.59-3.06c.25-.52.54-1.18.54-1.77c0-.79-.47-1.57-.27-2.38c1.68-.33 3.76 4.5 3.97 5.62c1.68 8.83-6.64 16.11-14.67 17.52c-13.55 2.37-21.34-9.5-19.78-20.04c.97-6.56 5.37-11.07 9.85-15.57c3.71-3.73 7.15-6.93 8.35-11.78c.21-.86.16-2.18-.09-3.03c-.21-.73-.61-1.4-.63-2.19c-.06-1.66 1.55.51 1.92.93c4.46 5.03 5.73 12.46 4.54 18.96c-.77 4.2-3.77 7.2-4.82 11.22c-.61 2.29-.55 4.52 1.41 6.18"/></symbol>
<symbol id="material-symbols-light--search" viewBox="0 0 24 24"><path fill="currentColor" d="m19.485 20.154l-6.262-6.262q-.75.639-1.725.989t-1.96.35q-2.402 0-4.066-1.663T3.808 9.503T5.47 5.436t4.064-1.667t4.068 1.664T15.268 9.5q0 1.042-.369 2.017t-.97 1.668l6.262 6.261zM9.539 14.23q1.99 0 3.36-1.37t1.37-3.361t-1.37-3.36t-3.36-1.37t-3.361 1.37t-1.37 3.36t1.37 3.36t3.36 1.37"/></symbol>
<symbol id="mdi--chevron-down" viewBox="0 0 24 24"><path fill="currentColor" d="M7.41 8.58L12 13.17l4.59-4.59L18 10l-6 6l-6-6z"/></symbol>
<symbol id="teenyicons--button-outline" viewBox="0 0 15 15"><path fill="none" stroke="currentColor" d="M5.5 10V8.5m0 0v-5a1 1 0 0 1 2 0v4h3.353c.91 0 1.647.737 1.647 1.647V10A4.5 4.5 0 0 1 8 14.5h-.5a4 4 0 0 1-4-4a2 2 0 0 1 2-2Zm3.5-3h2a2.5 2.5 0 0 0 0-5H4a2.5 2.5 0 0 0 0 5" stroke-width="1"/></symbol>
<symbol id="mdi--search-add-outline" viewBox="0 0 24 24"><path fill="currentColor" d="m15.5 14l5 5l-1.5 1.5l-5-5v-.79l-.27-.28A6.47 6.47 0 0 1 9.5 16A6.5 6.5 0 0 1 3 9.5A6.5 6.5 0 0 1 9.5 3A6.5 6.5 0 0 1 16 9.5c0 1.61-.59 3.09-1.57 4.23l.28.27zm-6 0C12 14 14 12 14 9.5S12 5 9.5 5S5 7 5 9.5S7 14 9.5 14m2.5-4h-2v2H9v-2H7V9h2V7h1v2h2z"/></symbol>
<symbol id="ix--to-search" viewBox="0 0 512 512"><path fill="currentColor" fill-rule="evenodd" d="M266.667 85.333c76.583 0 138.667 62.083 138.667 138.667c0 30.594-9.908 58.874-26.69 81.806l93.5 93.5l-30.17 30.17l-93.5-93.5c-22.932 16.782-51.213 26.69-81.807 26.69c-41.471 0-78.69-18.205-104.102-47.06l30.258-30.258C210.433 306.52 236.976 320 266.667 320c53.02 0 96-42.981 96-96c0-53.02-42.98-96-96-96c-24.26 0-46.42 8.999-63.32 23.841l-30.215-30.213c24.66-22.543 57.491-36.295 93.535-36.295m-121.752 38.248l89.752 89.752l-89.752 89.752l-30.17-30.17l38.237-38.249H42.667V192l110.316-.001l-38.238-38.248z"/></symbol>

<!-- Флаг (https://icon-sets.iconify.design/emojione/page-13.html) -->
<symbol id="mynaui--flag" viewBox="0 0 24 24"><path fill="none" stroke="currentColor" stroke-linecap="round" stroke-linejoin="round" stroke-width="1.5" d="M4 21v-5.313m0 0c5.818-4.55 10.182 4.55 16 0V4.313c-5.818 4.55-10.182-4.55-16 0z"/></symbol>
<symbol id="emojione--flag-for-ukraine" viewBox="0 0 64 64"><path fill="#ffe62e" d="M32 62c16.6 0 30-13.4 30-30H2c0 16.6 13.4 30 30 30"/><path fill="#428bc1" d="M32 2C15.4 2 2 15.4 2 32h60C62 15.4 48.6 2 32 2"/></symbol>


</svg>